<svg xmlns="http://www.w3.org/2000/svg" width="114" height="44" viewBox="0 0 114 44" role="img" aria-label="DJ USB Tkit">
  <defs>
    <linearGradient id="usb-body" x1="0" y1="0" x2="0" y2="1">
      <stop stop-color="#a855f7"/>
      <stop offset="1" stop-color="#9333ea"/>
    </linearGradient>
  </defs>

  <text x="2" y="30" font-family="Outfit, system-ui, sans-serif" font-size="26" font-weight="700" fill="currentColor">DJ</text>

  <g transform="translate(40,2)">
    <rect x="3" y="0" width="13" height="15" rx="1" fill="#b0abb8"/>
    <rect x="5" y="5" width="3.5" height="2.5" rx="0.5" fill="#7c28c9"/>
    <rect x="11" y="5" width="3.5" height="2.5" rx="0.5" fill="#7c28c9"/>
    <rect x="0" y="12" width="19" height="30" rx="2.5" fill="url(#usb-body)"/>
    <circle cx="9.5" cy="16" r="1.2" fill="#c026d3" opacity="0.9"/>
    <circle cx="9.5" cy="16" r="0.6" fill="#e879f9"/>
    <rect x="3.5"  y="22" width="1.2" height="5"  rx="0.6" fill="#e4dff0" opacity="0.55"/>
    <rect x="5.5"  y="20" width="1.2" height="9"  rx="0.6" fill="#e4dff0" opacity="0.65"/>
    <rect x="7.5"  y="18" width="1.2" height="13" rx="0.6" fill="#e4dff0" opacity="0.75"/>
    <rect x="9.5"  y="17" width="1.2" height="15" rx="0.6" fill="#e4dff0" opacity="0.85"/>
    <rect x="11.5" y="19" width="1.2" height="11" rx="0.6" fill="#e4dff0" opacity="0.7"/>
    <rect x="13.5" y="21" width="1.2" height="7"  rx="0.6" fill="#e4dff0" opacity="0.6"/>
    <rect x="15.5" y="23" width="1.2" height="3"  rx="0.6" fill="#e4dff0" opacity="0.5"/>
  </g>

  <text x="64" y="30" font-family="Outfit, system-ui, sans-serif" font-size="26" font-weight="700" fill="currentColor">Tkit</text>
</svg>
